<mxfile host="app.diagrams.net" modified="2023-08-08T08:12:38.328Z" agent="Mozilla/5.0 (Macintosh; Intel Mac OS X 10.15; rv:109.0) Gecko/20100101 Firefox/115.0" version="21.6.6" etag="flgYfRhEGmCbYdzgdP4Z" type="github">
  <diagram name="Page-1" id="bgZUmt2k91zt8RyKLeBg">
    <mxGraphModel>
      <root>
        <mxCell id="0" />
        <mxCell id="1" parent="0" />
      </root>
    </mxGraphModel>
  </diagram>
</mxfile>
